<mxfile host="app.diagrams.net" modified="2023-01-31T06:01:06.574Z" agent="5.0 (Windows NT 10.0; Win64; x64) AppleWebKit/537.36 (KHTML, like Gecko) Chrome/108.0.0.0 Safari/537.36" etag="BZfKHZe4ZkXUpOrOJv47" version="20.8.4" type="github">
  <diagram id="C5RBs43oDa-KdzZeNtuy" name="Page-1">
    <mxGraphModel dx="1434" dy="1997" grid="1" gridSize="10" guides="1" tooltips="1" connect="1" arrows="1" fold="1" page="1" pageScale="1" pageWidth="827" pageHeight="1169" math="0" shadow="0">
      <root>
        <mxCell id="WIyWlLk6GJQsqaUBKTNV-0" />
        <mxCell id="WIyWlLk6GJQsqaUBKTNV-1" parent="WIyWlLk6GJQsqaUBKTNV-0" />
        <mxCell id="i6i1cuTS0XWpMIzoZ4su-0" value="渲染流程" style="text;html=1;align=center;verticalAlign=middle;resizable=0;points=[];autosize=1;strokeColor=none;fillColor=none;" vertex="1" parent="WIyWlLk6GJQsqaUBKTNV-1">
          <mxGeometry x="20" y="-70" width="70" height="30" as="geometry" />
        </mxCell>
        <mxCell id="i6i1cuTS0XWpMIzoZ4su-6" value="" style="edgeStyle=orthogonalEdgeStyle;rounded=0;orthogonalLoop=1;jettySize=auto;html=1;" edge="1" parent="WIyWlLk6GJQsqaUBKTNV-1" source="i6i1cuTS0XWpMIzoZ4su-2" target="i6i1cuTS0XWpMIzoZ4su-5">
          <mxGeometry relative="1" as="geometry" />
        </mxCell>
        <mxCell id="i6i1cuTS0XWpMIzoZ4su-2" value="doAutoRender" style="rounded=0;whiteSpace=wrap;html=1;" vertex="1" parent="WIyWlLk6GJQsqaUBKTNV-1">
          <mxGeometry x="45" y="5" width="90" height="30" as="geometry" />
        </mxCell>
        <mxCell id="i6i1cuTS0XWpMIzoZ4su-8" value="" style="edgeStyle=orthogonalEdgeStyle;rounded=0;orthogonalLoop=1;jettySize=auto;html=1;" edge="1" parent="WIyWlLk6GJQsqaUBKTNV-1" source="i6i1cuTS0XWpMIzoZ4su-5" target="i6i1cuTS0XWpMIzoZ4su-7">
          <mxGeometry relative="1" as="geometry" />
        </mxCell>
        <mxCell id="i6i1cuTS0XWpMIzoZ4su-5" value="是否已渲染" style="rhombus;whiteSpace=wrap;html=1;rounded=0;" vertex="1" parent="WIyWlLk6GJQsqaUBKTNV-1">
          <mxGeometry x="185" y="-20" width="80" height="80" as="geometry" />
        </mxCell>
        <mxCell id="i6i1cuTS0XWpMIzoZ4su-7" value="render" style="whiteSpace=wrap;html=1;rounded=0;" vertex="1" parent="WIyWlLk6GJQsqaUBKTNV-1">
          <mxGeometry x="305" y="6.25" width="100" height="27.5" as="geometry" />
        </mxCell>
        <mxCell id="i6i1cuTS0XWpMIzoZ4su-9" value="否" style="text;html=1;align=center;verticalAlign=middle;resizable=0;points=[];autosize=1;strokeColor=none;fillColor=none;" vertex="1" parent="WIyWlLk6GJQsqaUBKTNV-1">
          <mxGeometry x="265" y="-10" width="40" height="30" as="geometry" />
        </mxCell>
        <mxCell id="i6i1cuTS0XWpMIzoZ4su-10" value="render&lt;br&gt;" style="text;html=1;align=center;verticalAlign=middle;resizable=0;points=[];autosize=1;strokeColor=none;fillColor=none;" vertex="1" parent="WIyWlLk6GJQsqaUBKTNV-1">
          <mxGeometry x="440" y="5" width="60" height="30" as="geometry" />
        </mxCell>
        <mxCell id="i6i1cuTS0XWpMIzoZ4su-14" value="" style="edgeStyle=orthogonalEdgeStyle;rounded=0;orthogonalLoop=1;jettySize=auto;html=1;" edge="1" parent="WIyWlLk6GJQsqaUBKTNV-1" source="i6i1cuTS0XWpMIzoZ4su-12" target="i6i1cuTS0XWpMIzoZ4su-13">
          <mxGeometry relative="1" as="geometry" />
        </mxCell>
        <mxCell id="i6i1cuTS0XWpMIzoZ4su-12" value="initContainer" style="whiteSpace=wrap;html=1;" vertex="1" parent="WIyWlLk6GJQsqaUBKTNV-1">
          <mxGeometry x="500" y="2.5" width="100" height="35" as="geometry" />
        </mxCell>
        <mxCell id="i6i1cuTS0XWpMIzoZ4su-44" value="" style="edgeStyle=orthogonalEdgeStyle;rounded=0;orthogonalLoop=1;jettySize=auto;html=1;" edge="1" parent="WIyWlLk6GJQsqaUBKTNV-1" source="i6i1cuTS0XWpMIzoZ4su-13" target="i6i1cuTS0XWpMIzoZ4su-43">
          <mxGeometry relative="1" as="geometry" />
        </mxCell>
        <mxCell id="i6i1cuTS0XWpMIzoZ4su-13" value="getInsertPosition&lt;br&gt;获取dom的插入位置，默认是append" style="whiteSpace=wrap;html=1;" vertex="1" parent="WIyWlLk6GJQsqaUBKTNV-1">
          <mxGeometry x="670" y="-8.75" width="120" height="57.5" as="geometry" />
        </mxCell>
        <mxCell id="i6i1cuTS0XWpMIzoZ4su-15" value="finishRender&lt;br&gt;" style="whiteSpace=wrap;html=1;" vertex="1" parent="WIyWlLk6GJQsqaUBKTNV-1">
          <mxGeometry x="990" y="-8.75" width="120" height="57.5" as="geometry" />
        </mxCell>
        <mxCell id="i6i1cuTS0XWpMIzoZ4su-17" value="&lt;span style=&quot;color: rgb(0, 0, 0); font-family: Helvetica; font-size: 12px; font-style: normal; font-variant-ligatures: normal; font-variant-caps: normal; font-weight: 400; letter-spacing: normal; orphans: 2; text-align: center; text-indent: 0px; text-transform: none; widows: 2; word-spacing: 0px; -webkit-text-stroke-width: 0px; background-color: rgb(251, 251, 251); text-decoration-thickness: initial; text-decoration-style: initial; text-decoration-color: initial; float: none; display: inline !important;&quot;&gt;finishRender&lt;/span&gt;" style="text;whiteSpace=wrap;html=1;" vertex="1" parent="WIyWlLk6GJQsqaUBKTNV-1">
          <mxGeometry x="1160" y="8.75" width="100" height="21.25" as="geometry" />
        </mxCell>
        <mxCell id="i6i1cuTS0XWpMIzoZ4su-27" value="" style="edgeStyle=orthogonalEdgeStyle;rounded=0;orthogonalLoop=1;jettySize=auto;html=1;" edge="1" parent="WIyWlLk6GJQsqaUBKTNV-1" source="i6i1cuTS0XWpMIzoZ4su-22" target="i6i1cuTS0XWpMIzoZ4su-26">
          <mxGeometry relative="1" as="geometry" />
        </mxCell>
        <mxCell id="i6i1cuTS0XWpMIzoZ4su-37" value="" style="edgeStyle=orthogonalEdgeStyle;rounded=0;orthogonalLoop=1;jettySize=auto;html=1;" edge="1" parent="WIyWlLk6GJQsqaUBKTNV-1" source="i6i1cuTS0XWpMIzoZ4su-22" target="i6i1cuTS0XWpMIzoZ4su-36">
          <mxGeometry relative="1" as="geometry" />
        </mxCell>
        <mxCell id="i6i1cuTS0XWpMIzoZ4su-22" value="是否有el(dom)" style="rhombus;whiteSpace=wrap;html=1;" vertex="1" parent="WIyWlLk6GJQsqaUBKTNV-1">
          <mxGeometry x="1250" y="-20" width="80" height="80" as="geometry" />
        </mxCell>
        <mxCell id="i6i1cuTS0XWpMIzoZ4su-25" value="有" style="text;html=1;align=center;verticalAlign=middle;resizable=0;points=[];autosize=1;strokeColor=none;fillColor=none;" vertex="1" parent="WIyWlLk6GJQsqaUBKTNV-1">
          <mxGeometry x="1340" y="-10" width="40" height="30" as="geometry" />
        </mxCell>
        <mxCell id="i6i1cuTS0XWpMIzoZ4su-29" value="" style="edgeStyle=orthogonalEdgeStyle;rounded=0;orthogonalLoop=1;jettySize=auto;html=1;" edge="1" parent="WIyWlLk6GJQsqaUBKTNV-1" source="i6i1cuTS0XWpMIzoZ4su-26" target="i6i1cuTS0XWpMIzoZ4su-28">
          <mxGeometry relative="1" as="geometry" />
        </mxCell>
        <mxCell id="i6i1cuTS0XWpMIzoZ4su-26" value="已渲染" style="rhombus;whiteSpace=wrap;html=1;" vertex="1" parent="WIyWlLk6GJQsqaUBKTNV-1">
          <mxGeometry x="1410" y="-20" width="80" height="80" as="geometry" />
        </mxCell>
        <mxCell id="i6i1cuTS0XWpMIzoZ4su-32" value="" style="edgeStyle=orthogonalEdgeStyle;rounded=0;orthogonalLoop=1;jettySize=auto;html=1;" edge="1" parent="WIyWlLk6GJQsqaUBKTNV-1" source="i6i1cuTS0XWpMIzoZ4su-28" target="i6i1cuTS0XWpMIzoZ4su-31">
          <mxGeometry relative="1" as="geometry" />
        </mxCell>
        <mxCell id="i6i1cuTS0XWpMIzoZ4su-28" value="initRenderTpl,取出renderTpl并调用setupRenderTpl" style="whiteSpace=wrap;html=1;" vertex="1" parent="WIyWlLk6GJQsqaUBKTNV-1">
          <mxGeometry x="1540" y="48.75" width="120" height="60" as="geometry" />
        </mxCell>
        <mxCell id="i6i1cuTS0XWpMIzoZ4su-30" value="否" style="text;html=1;align=center;verticalAlign=middle;resizable=0;points=[];autosize=1;strokeColor=none;fillColor=none;" vertex="1" parent="WIyWlLk6GJQsqaUBKTNV-1">
          <mxGeometry x="1500" y="-15" width="40" height="30" as="geometry" />
        </mxCell>
        <mxCell id="i6i1cuTS0XWpMIzoZ4su-34" value="" style="edgeStyle=orthogonalEdgeStyle;rounded=0;orthogonalLoop=1;jettySize=auto;html=1;" edge="1" parent="WIyWlLk6GJQsqaUBKTNV-1" source="i6i1cuTS0XWpMIzoZ4su-31" target="i6i1cuTS0XWpMIzoZ4su-33">
          <mxGeometry relative="1" as="geometry" />
        </mxCell>
        <mxCell id="i6i1cuTS0XWpMIzoZ4su-31" value="将renderData合并至组件实例、插入dom" style="whiteSpace=wrap;html=1;" vertex="1" parent="WIyWlLk6GJQsqaUBKTNV-1">
          <mxGeometry x="1540" y="248.75" width="120" height="60" as="geometry" />
        </mxCell>
        <mxCell id="i6i1cuTS0XWpMIzoZ4su-40" value="" style="edgeStyle=orthogonalEdgeStyle;rounded=0;orthogonalLoop=1;jettySize=auto;html=1;" edge="1" parent="WIyWlLk6GJQsqaUBKTNV-1" source="i6i1cuTS0XWpMIzoZ4su-33" target="i6i1cuTS0XWpMIzoZ4su-39">
          <mxGeometry relative="1" as="geometry" />
        </mxCell>
        <mxCell id="i6i1cuTS0XWpMIzoZ4su-33" value="onRender&lt;br&gt;设置lastBox的宽高" style="whiteSpace=wrap;html=1;" vertex="1" parent="WIyWlLk6GJQsqaUBKTNV-1">
          <mxGeometry x="1330" y="248.75" width="120" height="60" as="geometry" />
        </mxCell>
        <mxCell id="i6i1cuTS0XWpMIzoZ4su-35" value="body会走此流程" style="text;html=1;align=center;verticalAlign=middle;resizable=0;points=[];autosize=1;strokeColor=none;fillColor=none;" vertex="1" parent="WIyWlLk6GJQsqaUBKTNV-1">
          <mxGeometry x="1320" y="-45" width="110" height="30" as="geometry" />
        </mxCell>
        <mxCell id="i6i1cuTS0XWpMIzoZ4su-38" style="edgeStyle=orthogonalEdgeStyle;rounded=0;orthogonalLoop=1;jettySize=auto;html=1;entryX=0;entryY=0.5;entryDx=0;entryDy=0;" edge="1" parent="WIyWlLk6GJQsqaUBKTNV-1" source="i6i1cuTS0XWpMIzoZ4su-36" target="i6i1cuTS0XWpMIzoZ4su-33">
          <mxGeometry relative="1" as="geometry" />
        </mxCell>
        <mxCell id="i6i1cuTS0XWpMIzoZ4su-36" value="插入dom" style="whiteSpace=wrap;html=1;" vertex="1" parent="WIyWlLk6GJQsqaUBKTNV-1">
          <mxGeometry x="1230" y="123.75" width="120" height="60" as="geometry" />
        </mxCell>
        <mxCell id="i6i1cuTS0XWpMIzoZ4su-42" value="" style="edgeStyle=orthogonalEdgeStyle;rounded=0;orthogonalLoop=1;jettySize=auto;html=1;" edge="1" parent="WIyWlLk6GJQsqaUBKTNV-1" source="i6i1cuTS0XWpMIzoZ4su-39" target="i6i1cuTS0XWpMIzoZ4su-41">
          <mxGeometry relative="1" as="geometry" />
        </mxCell>
        <mxCell id="i6i1cuTS0XWpMIzoZ4su-39" value="触发afterRender和listeners里的render、afterRender" style="whiteSpace=wrap;html=1;" vertex="1" parent="WIyWlLk6GJQsqaUBKTNV-1">
          <mxGeometry x="1300" y="360" width="180" height="60" as="geometry" />
        </mxCell>
        <mxCell id="i6i1cuTS0XWpMIzoZ4su-41" value="初始化事件initEvent" style="whiteSpace=wrap;html=1;" vertex="1" parent="WIyWlLk6GJQsqaUBKTNV-1">
          <mxGeometry x="1330" y="460" width="120" height="60" as="geometry" />
        </mxCell>
        <mxCell id="i6i1cuTS0XWpMIzoZ4su-45" value="" style="edgeStyle=orthogonalEdgeStyle;rounded=0;orthogonalLoop=1;jettySize=auto;html=1;" edge="1" parent="WIyWlLk6GJQsqaUBKTNV-1" source="i6i1cuTS0XWpMIzoZ4su-43" target="i6i1cuTS0XWpMIzoZ4su-15">
          <mxGeometry relative="1" as="geometry" />
        </mxCell>
        <mxCell id="i6i1cuTS0XWpMIzoZ4su-43" value="getRenderTree,得到类似虚拟节点的对象。实际调用getElConfig" style="whiteSpace=wrap;html=1;" vertex="1" parent="WIyWlLk6GJQsqaUBKTNV-1">
          <mxGeometry x="820" y="-10" width="120" height="60" as="geometry" />
        </mxCell>
        <mxCell id="i6i1cuTS0XWpMIzoZ4su-46" value="getElConfig" style="text;whiteSpace=wrap;html=1;" vertex="1" parent="WIyWlLk6GJQsqaUBKTNV-1">
          <mxGeometry x="430" y="123.75" width="90" height="26.25" as="geometry" />
        </mxCell>
        <mxCell id="i6i1cuTS0XWpMIzoZ4su-49" value="" style="edgeStyle=orthogonalEdgeStyle;rounded=0;orthogonalLoop=1;jettySize=auto;html=1;" edge="1" parent="WIyWlLk6GJQsqaUBKTNV-1" source="i6i1cuTS0XWpMIzoZ4su-47" target="i6i1cuTS0XWpMIzoZ4su-48">
          <mxGeometry relative="1" as="geometry" />
        </mxCell>
        <mxCell id="i6i1cuTS0XWpMIzoZ4su-47" value="initRednerTpl" style="whiteSpace=wrap;html=1;" vertex="1" parent="WIyWlLk6GJQsqaUBKTNV-1">
          <mxGeometry x="520" y="116.25" width="110" height="41.25" as="geometry" />
        </mxCell>
        <mxCell id="i6i1cuTS0XWpMIzoZ4su-48" value="getTpl将string或者Array类型的tpl(取自rednerTpl)转化为XTemplate对象" style="whiteSpace=wrap;html=1;" vertex="1" parent="WIyWlLk6GJQsqaUBKTNV-1">
          <mxGeometry x="710" y="106.88" width="165" height="60" as="geometry" />
        </mxCell>
        <mxCell id="i6i1cuTS0XWpMIzoZ4su-52" value="getTpl生成渲染函数" style="whiteSpace=wrap;html=1;" vertex="1" parent="WIyWlLk6GJQsqaUBKTNV-1">
          <mxGeometry x="320" y="258.75" width="120" height="40" as="geometry" />
        </mxCell>
        <mxCell id="i6i1cuTS0XWpMIzoZ4su-53" value="XTemplate&lt;br style=&quot;border-color: var(--border-color);&quot;&gt;主要的方法就两个" style="text;html=1;align=center;verticalAlign=middle;resizable=0;points=[];autosize=1;strokeColor=none;fillColor=none;" vertex="1" parent="WIyWlLk6GJQsqaUBKTNV-1">
          <mxGeometry x="400" y="213.75" width="120" height="40" as="geometry" />
        </mxCell>
        <mxCell id="i6i1cuTS0XWpMIzoZ4su-55" value="applyOut调用渲染函数" style="whiteSpace=wrap;html=1;" vertex="1" parent="WIyWlLk6GJQsqaUBKTNV-1">
          <mxGeometry x="495" y="258.75" width="110" height="40" as="geometry" />
        </mxCell>
      </root>
    </mxGraphModel>
  </diagram>
</mxfile>
